<svg width="34" height="32" viewBox="0 0 34 32" fill="none" xmlns="http://www.w3.org/2000/svg">
<path d="M24.6002 2.19966C24.3373 0.946405 23.1962 0 21.8313 0C21.5193 0 21.2661 0.245812 21.2661 0.549916C21.2661 0.85402 21.5193 1.09983 21.8313 1.09983C22.7661 1.09983 23.5269 1.84002 23.5269 2.74958C23.5269 3.65914 22.7661 4.39933 21.8313 4.39933C21.5193 4.39933 21.2661 4.64514 21.2661 4.94924C21.2661 5.25335 21.5193 5.49916 21.8313 5.49916C23.1957 5.49916 24.3373 4.55275 24.6002 3.2995H32.0047V8.24874H1.48439V3.2995H9.39707H11.0926C11.4046 3.2995 11.6578 3.05368 11.6578 2.74958C11.6578 2.44548 11.4046 2.19966 11.0926 2.19966H10.0663C10.3002 1.56066 10.922 1.09983 11.6578 1.09983C12.5927 1.09983 13.3534 1.84002 13.3534 2.74958C13.3534 3.65914 12.5927 4.39933 11.6578 4.39933C11.3458 4.39933 11.0926 4.64514 11.0926 4.94924C11.0926 5.25335 11.3458 5.49916 11.6578 5.49916C13.2161 5.49916 14.4838 4.2657 14.4838 2.74958C14.4838 1.23346 13.2161 0 11.6578 0C10.2935 0 9.15177 0.946405 8.88896 2.19966H0.354004V9.34857V31.3452H33.1351V9.34857V2.19966H24.6002ZM32.0047 30.2454H1.48439V9.34857H32.0047V30.2454Z" fill="white"/>
<path d="M15.0491 1.09983C15.9839 1.09983 16.7447 1.84002 16.7447 2.74958C16.7447 3.65914 15.9839 4.39933 15.0491 4.39933C14.7371 4.39933 14.4839 4.64514 14.4839 4.94924C14.4839 5.25335 14.7371 5.49916 15.0491 5.49916C16.6073 5.49916 17.875 4.2657 17.875 2.74958C17.875 1.23346 16.6073 0 15.0491 0C14.7371 0 14.4839 0.245812 14.4839 0.549916C14.4839 0.85402 14.7371 1.09983 15.0491 1.09983Z" fill="white"/>
<path d="M18.4402 1.09983C19.375 1.09983 20.1358 1.84002 20.1358 2.74958C20.1358 3.65914 19.375 4.39933 18.4402 4.39933C18.1282 4.39933 17.875 4.64514 17.875 4.94924C17.875 5.25335 18.1282 5.49916 18.4402 5.49916C19.9984 5.49916 21.2662 4.2657 21.2662 2.74958C21.2662 1.23346 19.9984 0 18.4402 0C18.1282 0 17.875 0.245812 17.875 0.549916C17.875 0.85402 18.1282 1.09983 18.4402 1.09983Z" fill="white"/>
<path d="M5.44068 13.7475H17.8749C18.1869 13.7475 18.4401 13.5017 18.4401 13.1976C18.4401 12.8935 18.1869 12.6477 17.8749 12.6477H5.44068C5.12869 12.6477 4.87549 12.8935 4.87549 13.1976C4.87549 13.5017 5.12869 13.7475 5.44068 13.7475Z" fill="white"/>
<path d="M28.0484 21.4465H19.5706C19.2586 21.4465 19.0054 21.6923 19.0054 21.9964C19.0054 22.3006 19.2586 22.5464 19.5706 22.5464H28.0484C28.3604 22.5464 28.6136 22.3006 28.6136 21.9964C28.6136 21.6923 28.3604 21.4465 28.0484 21.4465Z" fill="white"/>
<path d="M5.44068 18.1472H11.0926C11.4046 18.1472 11.6578 17.9014 11.6578 17.5973C11.6578 17.2932 11.4046 17.0474 11.0926 17.0474H5.44068C5.12869 17.0474 4.87549 17.2932 4.87549 17.5973C4.87549 17.9014 5.12869 18.1472 5.44068 18.1472Z" fill="white"/>
<path d="M28.0484 25.8459H22.3965C22.0845 25.8459 21.8313 26.0918 21.8313 26.3959C21.8313 26.7 22.0845 26.9458 22.3965 26.9458H28.0484C28.3604 26.9458 28.6136 26.7 28.6136 26.3959C28.6136 26.0918 28.3604 25.8459 28.0484 25.8459Z" fill="white"/>
<path d="M16.1794 17.5973C16.1794 17.9014 16.4326 18.1472 16.7446 18.1472H25.2225C25.5345 18.1472 25.7877 17.9014 25.7877 17.5973C25.7877 17.2932 25.5345 17.0474 25.2225 17.0474H16.7446C16.4326 17.0474 16.1794 17.2932 16.1794 17.5973Z" fill="white"/>
<path d="M14.32 17.9879C14.4217 17.8834 14.4839 17.7405 14.4839 17.5975C14.4839 17.454 14.4217 17.311 14.32 17.207C14.1109 17.0036 13.7265 17.0036 13.5174 17.207C13.4157 17.311 13.3535 17.454 13.3535 17.5975C13.3535 17.7405 13.4157 17.8834 13.5174 17.9879C13.6248 18.0919 13.7718 18.1474 13.9187 18.1474C14.0657 18.1474 14.2126 18.0919 14.32 17.9879Z" fill="white"/>
<path d="M7.70142 21.9964C7.70142 22.3006 7.95462 22.5464 8.26661 22.5464H16.7445C17.0565 22.5464 17.3097 22.3006 17.3097 21.9964C17.3097 21.6923 17.0565 21.4465 16.7445 21.4465H8.26661C7.95462 21.4465 7.70142 21.6923 7.70142 21.9964Z" fill="white"/>
<path d="M5.44068 22.5469C5.58763 22.5469 5.73458 22.4864 5.84197 22.3874C5.9437 22.2829 6.00587 22.1399 6.00587 21.997C6.00587 21.8534 5.9437 21.7104 5.84197 21.612C5.63285 21.403 5.24851 21.403 5.03939 21.6065C4.93766 21.7104 4.87549 21.8534 4.87549 21.997C4.87549 22.1399 4.93766 22.2829 5.03939 22.3874C5.14678 22.4864 5.28808 22.5469 5.44068 22.5469Z" fill="white"/>
<path d="M28.0483 18.1474C28.1953 18.1474 28.3422 18.0919 28.4496 17.9879C28.557 17.8834 28.6135 17.7405 28.6135 17.5975C28.6135 17.454 28.557 17.311 28.4496 17.207C28.2349 17.0036 27.8562 17.0036 27.6471 17.207C27.5453 17.311 27.4832 17.454 27.4832 17.5975C27.4832 17.7405 27.5453 17.8834 27.6471 17.9879C27.7544 18.0919 27.9014 18.1474 28.0483 18.1474Z" fill="white"/>
<path d="M19.5705 25.8459H5.44068C5.12869 25.8459 4.87549 26.0918 4.87549 26.3959C4.87549 26.7 5.12869 26.9458 5.44068 26.9458H19.5705C19.8825 26.9458 20.1357 26.7 20.1357 26.3959C20.1357 26.0918 19.8825 25.8459 19.5705 25.8459Z" fill="white"/>
</svg>
