<svg width="33" height="33" viewBox="0 0 33 33" fill="none" xmlns="http://www.w3.org/2000/svg">
<path fill-rule="evenodd" clip-rule="evenodd" d="M3.25024 1.38187C3.25024 1.17097 3.42848 1 3.64834 1H32.3114C32.5313 1 32.7095 1.17097 32.7095 1.38187V29.0039C32.7095 29.2148 32.5313 29.3858 32.3114 29.3858C32.0916 29.3858 31.9133 29.2148 31.9133 29.0039V1.76374H3.64834C3.42848 1.76374 3.25024 1.59277 3.25024 1.38187Z" fill="white" stroke="white" stroke-width="0.5" stroke-linecap="round" stroke-linejoin="round"/>
<path d="M1.12737 7.30443L2.75324 5.67856L2.75324 29.4373L2.75324 29.5623L2.87824 29.5623L3.66816 29.5623L3.79316 29.5623L3.79316 29.4373L3.79316 5.67856L5.41903 7.30443C5.62208 7.50749 5.9513 7.50749 6.15436 7.30443C6.35741 7.10138 6.35742 6.77216 6.15436 6.5691L3.64086 4.0556C3.43781 3.85255 3.10859 3.85255 2.90553 4.0556L0.392037 6.5691C0.188981 6.77216 0.188982 7.10138 0.392037 7.30443C0.595094 7.50749 0.924312 7.50749 1.12737 7.30443Z" fill="white" stroke="white" stroke-width="0.25"/>
<path d="M25.1262 27.2909L26.7603 28.9166L2.8772 28.9166H2.7522V29.0416V29.8315V29.9565H2.8772L26.7603 29.9565L25.1262 31.5821C24.922 31.7852 24.922 32.1148 25.1262 32.3179C25.33 32.5207 25.6602 32.5207 25.864 32.3179L28.3906 29.8044C28.5947 29.6013 28.5947 29.2717 28.3906 29.0686L25.864 26.5551C25.6602 26.3524 25.33 26.3524 25.1262 26.5551C24.922 26.7582 24.922 27.0878 25.1262 27.2909Z" fill="white" stroke="white" stroke-width="0.25"/>
<path fill-rule="evenodd" clip-rule="evenodd" d="M14.1625 1.11568C14.3167 1.26992 14.3167 1.51999 14.1625 1.67423L9.42301 6.41373C9.26877 6.56797 9.0187 6.56797 8.86446 6.41373C8.71022 6.25949 8.71022 6.00941 8.86446 5.85517L13.604 1.11568C13.7582 0.96144 14.0083 0.96144 14.1625 1.11568Z" fill="white" stroke="white" stroke-width="0.5" stroke-linecap="round" stroke-linejoin="round"/>
<path fill-rule="evenodd" clip-rule="evenodd" d="M32.4624 19.9423C32.6166 20.0966 32.6166 20.3467 32.4624 20.5009L28.1178 24.8454C27.9636 24.9997 27.7135 24.9997 27.5593 24.8454C27.405 24.6912 27.405 24.4411 27.5593 24.2869L31.9038 19.9423C32.0581 19.7881 32.3081 19.7881 32.4624 19.9423Z" fill="white" stroke="white" stroke-width="0.5" stroke-linecap="round" stroke-linejoin="round"/>
<path fill-rule="evenodd" clip-rule="evenodd" d="M20.0851 1.11391C20.2404 1.26716 20.242 1.51723 20.0887 1.67245L9.81981 12.073C9.66655 12.2282 9.41648 12.2298 9.26126 12.0766C9.10604 11.9233 9.10445 11.6732 9.25771 11.518L19.5266 1.11746C19.6799 0.962245 19.9299 0.960652 20.0851 1.11391Z" fill="white" stroke="white" stroke-width="0.5" stroke-linecap="round" stroke-linejoin="round"/>
<path fill-rule="evenodd" clip-rule="evenodd" d="M32.5939 13.3591C32.7481 13.5133 32.7481 13.7634 32.5939 13.9176L22.5883 23.9232C22.4341 24.0775 22.184 24.0775 22.0297 23.9232C21.8755 23.769 21.8755 23.5189 22.0297 23.3647L32.0353 13.3591C32.1896 13.2048 32.4396 13.2048 32.5939 13.3591Z" fill="white" stroke="white" stroke-width="0.5" stroke-linecap="round" stroke-linejoin="round"/>
<path fill-rule="evenodd" clip-rule="evenodd" d="M26.4084 1.24953C26.5614 1.40501 26.5594 1.65508 26.4039 1.80807L9.94736 18.0013C9.79188 18.1543 9.54182 18.1523 9.38883 17.9968C9.23584 17.8414 9.23785 17.5913 9.39333 17.4383L25.8499 1.24503C26.0054 1.09204 26.2554 1.09405 26.4084 1.24953Z" fill="white" stroke="white" stroke-width="0.5" stroke-linecap="round" stroke-linejoin="round"/>
<path fill-rule="evenodd" clip-rule="evenodd" d="M32.594 7.17183C32.7482 7.32607 32.7482 7.57615 32.594 7.73039L16.0058 24.3186C15.8515 24.4728 15.6015 24.4728 15.4472 24.3186C15.293 24.1644 15.293 23.9143 15.4472 23.7601L32.0354 7.17183C32.1897 7.01759 32.4398 7.01759 32.594 7.17183Z" fill="white" stroke="white" stroke-width="0.5" stroke-linecap="round" stroke-linejoin="round"/>
<path fill-rule="evenodd" clip-rule="evenodd" d="M32.3307 1.24727C32.4849 1.40151 32.4849 1.65159 32.3307 1.80583L9.68644 24.4501C9.5322 24.6043 9.28213 24.6043 9.12789 24.4501C8.97365 24.2958 8.97365 24.0458 9.12789 23.8915L31.7721 1.24727C31.9264 1.09303 32.1764 1.09303 32.3307 1.24727Z" fill="white" stroke="white" stroke-width="0.5" stroke-linecap="round" stroke-linejoin="round"/>
</svg>
